<svg xmlns="http://www.w3.org/2000/svg" viewBox="0 0 107.97 43.01"><defs><style>.cls-1{fill:#040000;}.cls-2{fill:#f2c61f;}.cls-3{fill:#1e95d4;}.cls-4{fill:#231815;}</style></defs><title>资源 1</title><g id="图层_2" data-name="图层 2"><g id="图层_1-2" data-name="图层 1"><path class="cls-1" d="M22.89,33.71l0-8.4a3.22,3.22,0,0,1,4.18-3L31,23.5a3.2,3.2,0,0,1,2.25,3.08l0,8.39A3.22,3.22,0,0,1,29.07,38l-3.93-1.24A3.21,3.21,0,0,1,22.89,33.71ZM30,33.66l0-6.4a.8.8,0,0,0-.56-.77l-2.19-.69a.81.81,0,0,0-1.05.76l0,6.41a.81.81,0,0,0,.57.77l2.19.69A.8.8,0,0,0,30,33.66Z"/><path class="cls-2" d="M40.47,21.61,29.94,18.45l-2.33.82,3.8,1.15a.16.16,0,0,1-.06.31l-6.08-.64L23,21l10.34,3.26L36.68,23l-3.18-.67a.16.16,0,0,1,0-.32l4.59.44Z"/><path class="cls-3" d="M33.29,24.21,36.68,23l0,10.52a.81.81,0,0,0,1.08.76l2.76-1v3.47l-4,1.46a2.41,2.41,0,0,1-3.23-2.28Z"/><polygon class="cls-3" points="22.95 19.84 22.96 17.38 24.84 16.7 24.88 8.57 23 9.26 23.02 5.82 30.2 3.2 30.19 6.64 28.29 7.33 28.25 15.56 30.15 14.88 30.13 18.35 22.95 20.96 22.95 19.84"/><path class="cls-1" d="M12.61,16.5l.05-10.67a2.41,2.41,0,0,1,3.13-2.28L23,5.81l0,3.48L17,7.4a.81.81,0,0,0-1,.77v.6a.8.8,0,0,0,.56.77l6.49,2v.56l0,2.95-7-2.21v2.28L23,17.38v3.55L13.74,18A1.61,1.61,0,0,1,12.61,16.5Z"/><path class="cls-2" d="M22.75,1.41,19,2.76a.81.81,0,0,1-.51,0l-.11,0a.16.16,0,0,1,0-.31L22.71.91,19.89,0l-5,1.76a.81.81,0,0,0,0,1.53l4.21,1.32L23.64,3a.81.81,0,0,1,.51,0l.3.09a.16.16,0,0,1,0,.31L20.17,4.92l2.85.9L28,4a.81.81,0,0,0,0-1.53L24.29,1.37A2.39,2.39,0,0,0,22.75,1.41Z"/><path class="cls-3" d="M22.26,28.33l2.36-.86a2.4,2.4,0,0,1,3.23,2.27l0,10A2.43,2.43,0,0,1,26.22,42l-2.36.85a2.4,2.4,0,0,1-3.23-2.27l.05-10A2.4,2.4,0,0,1,22.26,28.33Zm1.83,11,.53-.18a.39.39,0,0,0,.27-.38l0-7.38a.4.4,0,0,0-.53-.38l-.53.18a.41.41,0,0,0-.27.38l0,7.38A.39.39,0,0,0,24.09,39.31Z"/><polygon class="cls-1" points="13.82 41.85 13.87 30.25 10.34 29.14 10.35 25.66 20.69 28.9 20.67 31.36 20.67 32.38 17.15 31.27 17.09 42.88 13.82 41.85"/><path class="cls-2" d="M20.14,24.41,17.43,25.5l2.62.82.77-.29a.5.5,0,0,1,.32,0l.74.23a.16.16,0,0,1,0,.3l-1,.36a.91.91,0,0,1-.63,0l-3.75-1.2a.24.24,0,0,1,0-.46l3.79-1.38L17.55,23l-5,1.81a.8.8,0,0,0,0,1.52l7,2.21a3.16,3.16,0,0,0,2.06,0l3.94-1.44a.8.8,0,0,0,0-1.52l-3.86-1.22A2.38,2.38,0,0,0,20.14,24.41Z"/><path class="cls-3" d="M10.34,24.54l.07-14,3.35-1.21a2.84,2.84,0,0,1,2.44.25h0A2.82,2.82,0,0,1,17.57,12l0,8A2.83,2.83,0,0,1,17,21.66h0a9.05,9.05,0,0,1-4.19,3.11l-2.44.89ZM13.71,21l.52-.2a.4.4,0,0,0,.26-.37l0-7.37a.4.4,0,0,0-.54-.38l-.52.2a.41.41,0,0,0-.26.38l0,7.37A.4.4,0,0,0,13.71,21Z"/><path class="cls-1" d="M0,22.42l0-3.58,6,1.89a.81.81,0,0,0,1-.76v-.6a.8.8,0,0,0-.56-.77L2.29,17.26A3.2,3.2,0,0,1,0,14.18V11.63A3.21,3.21,0,0,1,4.23,8.58l6.18,1.94,0,3.48-6-1.89a.8.8,0,0,0-1,.76v.6a.8.8,0,0,0,.57.77l4.23,1.33a3.22,3.22,0,0,1,2.25,3.08l0,2.66a3.21,3.21,0,0,1-4.17,3.05Z"/><polygon class="cls-2" points="0.07 7.27 4.31 5.73 10.62 7.71 6.39 9.25 0.07 7.27"/><polygon class="cls-2" points="7.99 9.76 12.22 8.22 14.67 8.98 10.41 10.52 7.99 9.76"/><path class="cls-4" d="M47.36,8.71c2.39-1.26,3.72-2.89,4-4.91H47.53V2.68h3.9V.52H52.6V2.68h3.9V3.8H52.64a6.86,6.86,0,0,0,4,4.87L56,9.78a7.84,7.84,0,0,1-3.91-4.39A8.36,8.36,0,0,1,48,9.78Z"/><path class="cls-4" d="M61.48,9.75l-.76,0c-.23,0-.47,0-.7-.06l-.3-1.05.87.09c.29,0,.53,0,.72,0a.38.38,0,0,0,.27-.08.34.34,0,0,0,.07-.25V7.19h-4v-1h4V5.48l1.61-.65h-4v-1h6v1L62.78,6v.24h4v1h-4V8.53C62.78,9.34,62.35,9.75,61.48,9.75ZM59.62,2.11A7.89,7.89,0,0,0,58.7.92l.92-.48a5.55,5.55,0,0,1,.47.55l.53.73-.72.39H62a3.55,3.55,0,0,0-.33-.53c-.15-.2-.33-.44-.54-.7L62,.37a9,9,0,0,1,1,1.27l-.75.47h1.19A12.42,12.42,0,0,0,64.73.44l1,.48c-.15.2-.32.39-.48.6s-.34.4-.52.59h1.88V4.16H65.53v-1H58.9v1H57.78V2.11Z"/><path class="cls-4" d="M71.88,6.43H68.69V5.35h3.19V3.43h-2a11,11,0,0,1-1.07,1.76l-1-.76A9.43,9.43,0,0,0,69.57.88l1.11.32a6.65,6.65,0,0,1-.4,1.16h1.6V.52H73V2.36h3.4V3.43H73V5.35h3.19V6.43H73v2h4V9.5H67.89V8.43h4Z"/><path class="cls-4" d="M79.27,5.48q-.15.45-.36,1c-.15.37-.32.79-.52,1.25l-.48-1.32a11.34,11.34,0,0,0,1.28-3.19H78.07v-1h1.2V.52h1V2.2h1v1h-1V4l.59-.36c.15.24.29.47.41.71s.24.48.35.72l-.84.52a4.87,4.87,0,0,0-.24-.57,4.53,4.53,0,0,0-.27-.54V9.78h-1Zm1.48,3.67a7.06,7.06,0,0,0,1-3.92V1c.86,0,1.72,0,2.59-.12S86.08.68,87,.52l.27,1c-.82.15-1.59.27-2.33.34S83.47,2,82.78,2V3.16h4.07v1a8.76,8.76,0,0,1-1.32,3.31,7.06,7.06,0,0,0,1.88,1.32l-.6,1a8.28,8.28,0,0,1-1.13-.69,7.14,7.14,0,0,1-.9-.82,8.62,8.62,0,0,1-2,1.51l-.6-.95A8.32,8.32,0,0,0,84.1,7.39a9.53,9.53,0,0,1-.7-1.57A9,9,0,0,1,83,4.16h-.2V5.23a7.93,7.93,0,0,1-1.16,4.55Zm4.11-2.64a7.3,7.3,0,0,0,.92-2.35H84.06A8,8,0,0,0,84.86,6.51Z"/><path class="cls-4" d="M90.29,5.51l.6-.32H89.77V3.39a6.19,6.19,0,0,1-.62.25c-.19.07-.39.14-.58.19L88.13,3a10.37,10.37,0,0,0,1.32-.4l-.39-.11-.49-.12.64-.68c.23.08.44.15.63.23l.53.21.41-.24.35-.24H88.69V.8h3.84v.76a5.14,5.14,0,0,1-.65.55h2a6.1,6.1,0,0,1-.54-.59c-.16-.22-.32-.45-.47-.68L93.8.48l.27.37c.09.11.17.22.26.31A13.66,13.66,0,0,0,95.76.44l.6.64a9.33,9.33,0,0,1-1.48.64l.14.13L95.2,2a10.69,10.69,0,0,0,1.6-.68l.52.72a3.71,3.71,0,0,1-.61.28,4.61,4.61,0,0,1-.63.2,7.22,7.22,0,0,0,1.44.4l-.4.91a5.17,5.17,0,0,1-1.2-.36V5.19H94.81l.55.29L95,5.75h2.35v.88h-9V5.75h2.27ZM88.21,8.83c1.41-.08,2.12-.4,2.12-1V7h4.75v1.4a.32.32,0,0,0,.36.36H96a.54.54,0,0,0,.24-.05.36.36,0,0,0,.14-.23,3.13,3.13,0,0,0,.08-.4c0-.15,0-.29,0-.42l1.12.45c0,.11,0,.23-.08.36s-.07.25-.11.37a1.35,1.35,0,0,1-.36.56,1,1,0,0,1-.73.24H95a1.14,1.14,0,0,1-.81-.26,1,1,0,0,1-.26-.7v-.8H91.48V8.1c0,.86-.91,1.41-2.75,1.68ZM95.4,3.24a5.45,5.45,0,0,1-1-.69V3h-3V2.52a7.17,7.17,0,0,1-1.25.72ZM90.89,4v.35h3.92V4Zm2.67,1.71.31-.28a2.18,2.18,0,0,0,.25-.28H91.61l.64.56Z"/><path class="cls-4" d="M47.4,11.7h2.31v-1h1.13v1h2.31v-1h1.12v1h2.31v1.08H54.27v.92H53.15v-.92H50.84v.92H49.71v-.92H47.4ZM48.12,19a1.17,1.17,0,0,1,0-.9,2,2,0,0,1,.68-.8l.8-.5.88-.49c.31-.16.64-.33,1-.5l1.19-.54H48.24V14.18h6.95v1.08c-1.2.47-2.27.93-3.2,1.38A22,22,0,0,0,49.6,18c-.24.16-.35.32-.35.5a.26.26,0,0,0,.12.19.48.48,0,0,0,.23.07h5.1a.68.68,0,0,0,.37-.09.5.5,0,0,0,.2-.32c0-.11,0-.23.06-.37s0-.28.05-.43,0-.3,0-.45,0-.28,0-.4l1.12.42c0,.29,0,.56-.08.82s-.08.48-.12.68a1.52,1.52,0,0,1-.53.93,1.84,1.84,0,0,1-1.1.29H49.49a1.75,1.75,0,0,1-.87-.2A1.12,1.12,0,0,1,48.12,19Z"/><path class="cls-4" d="M61.65,15.06A14.17,14.17,0,0,1,58.22,19l-.76-.92A11.88,11.88,0,0,0,61.1,13.9H57.78V12.82h3.87V10.74h1.17v2.08h3.83V13.9H63.29A13.11,13.11,0,0,0,67,18l-.88.88a14.64,14.64,0,0,1-3.31-3.79V20H61.65Zm3.2-2.4c-.17-.17-.37-.36-.59-.54s-.48-.38-.77-.58l.8-.72.73.53.67.55Z"/><path class="cls-4" d="M67.69,19.09a2.94,2.94,0,0,1,1.12-1.27V14.89h-1V13.78h2v4.11a3.18,3.18,0,0,0,2.4,1h2.33c.84,0,1.74,0,2.71-.08l-.33,1c-1.83,0-3.59,0-5.27,0A3.45,3.45,0,0,1,69.49,19q-.24-.18-.36,0a3,3,0,0,0-.61,1.12Zm1.44-6a9.11,9.11,0,0,0-.52-.92,10,10,0,0,0-.61-.84l1-.6a9.32,9.32,0,0,1,1.12,1.76Zm4-.44H71.81c-.06.14-.13.28-.2.43s-.18.32-.29.49L70.41,13a7.58,7.58,0,0,0,.87-2.2l1,.32c-.06.22-.11.39-.16.52h1v-.92h1.08v.92h2.31v1H74.24v1.08H77v1H70.41v-1h2.75Zm3.19,5.6H71V15.33h5.31Zm-4.23-1.93v1h3.15v-1Z"/><path class="cls-4" d="M78.23,15.7a3.17,3.17,0,0,0,1.16-1.65H78.07v-1h1.36V12h-1V11h5.19v1h-1V13.1H84v1H82.7v2.12H81.62V14.05H80.46a3,3,0,0,1-.37,1.16,4.84,4.84,0,0,1-.94,1.16Zm3.87,2.35H78.75v-1H82.1v-.63h1.12v.63h3.36v1H83.22v.68h4v1H78.07v-1h4ZM80.5,12V13.1h1.12V12Zm4.76,2.64h-1V11.26h1Zm.36,1.67a3.24,3.24,0,0,1-.45,0l-.48-.06-.27-1,.56.06.46,0a.37.37,0,0,0,.29-.09.47.47,0,0,0,.09-.33V10.74h1.07v4.35a1.15,1.15,0,0,1-.32.95A1.5,1.5,0,0,1,85.62,16.29Z"/><path class="cls-4" d="M89,18.69a.67.67,0,0,0,.24-.6V14.7h-.92V13.61h2v3.92l1-.88.24,1.17-2.08,1.87ZM90,13c-.25-.33-.5-.64-.75-.92s-.49-.53-.73-.76l.92-.68a10.4,10.4,0,0,1,1.48,1.56ZM90.73,19a7.56,7.56,0,0,0,2.59-1,5.79,5.79,0,0,1-1.19-2h-.6V15H96.6v1A5.53,5.53,0,0,1,95,18a6.15,6.15,0,0,0,2.6,1l-.56,1a7.66,7.66,0,0,1-2.88-1.31A9.17,9.17,0,0,1,91.29,20ZM91,14a1.9,1.9,0,0,0,1.21-1.8V11H96v2a.29.29,0,0,0,.32.32h1.07l-.23,1H96c-.75,0-1.12-.41-1.12-1.25V12.1h-1.6v.24a2.69,2.69,0,0,1-1.48,2.48Zm3.2,3.4a4.24,4.24,0,0,0,1.12-1.32h-2A3.42,3.42,0,0,0,94.2,17.38Z"/><path class="cls-4" d="M99.4,18.73a.55.55,0,0,0,.31-.47V14.78H98.56V13.66h2.27v4l1.44-1.23.23,1.23L100,19.85Zm1-5.63c-.29-.37-.57-.71-.84-1s-.52-.54-.76-.76l.88-.72a10.3,10.3,0,0,1,1.64,1.72Zm1.24.76h2.44V10.74h1.11v3.12h2.48V15h-2.48v5h-1.11V15h-2.44Z"/><path class="cls-4" d="M47.24,29.32a9.08,9.08,0,0,0,4.44-1.65H47.45v-1H52.2a15.16,15.16,0,0,0,.23-3.31h1.12a16.13,16.13,0,0,1-.24,3.31h3.31v1H53.07c-.87,1.25-2.62,2.13-5.27,2.64ZM51.39,22a2.42,2.42,0,0,0-.21-.37c-.08-.14-.19-.3-.3-.47L52,20.84A6.48,6.48,0,0,1,52.71,22h3.72v2.11H55.31V23H48.68v1.08H47.56V22Zm-.67,4.54a18.33,18.33,0,0,0-2.56-1l.64-.85a12.32,12.32,0,0,1,1.26.41,14.15,14.15,0,0,1,1.3.56ZM51.39,25c-.29-.15-.62-.31-1-.48s-.82-.32-1.31-.48l.67-.76c.42.12.82.25,1.2.4s.76.31,1.13.48ZM56,30.31a15.26,15.26,0,0,0-1.63-.78,18.28,18.28,0,0,0-1.76-.65l.67-.84a23.56,23.56,0,0,1,3.36,1.35Z"/><path class="cls-4" d="M57.86,25.28h.92v3.31l.44-.11V24.56H57.94V21.25H61v3.31h-.76v1.16h.8v1h-.8v1.55l.88-.27v1.11L57.75,30l-.25-1,.36-.12Zm1.09-3v1.32H60V22.24Zm8,5.72c0,.24-.06.47-.1.71a4.69,4.69,0,0,1-.17.67,1.28,1.28,0,0,1-.36.62.93.93,0,0,1-.64.24,1.6,1.6,0,0,1-.77-.17,3,3,0,0,1-.53-.41,3.52,3.52,0,0,1-.33-.4c-.1-.15-.21-.31-.3-.47-.29.22-.6.43-.93.64s-.66.39-1,.56l-.48-1,1-.53a7.12,7.12,0,0,0,1-.62c-.08-.23-.16-.5-.23-.79s-.13-.59-.18-.89l-1.52.23-.08-1,1.48-.24c0-.18,0-.36-.05-.54l0-.54-1.28.17-.08-1,1.31-.16V21h1v2l2.87-.33,0,1L63.73,24q0,.25,0,.54c0,.19,0,.36.05.5l2.88-.48.08,1L63.89,26a6.58,6.58,0,0,0,.15.77,3.13,3.13,0,0,0,.16.51,7.24,7.24,0,0,0,.8-.64c.24-.24.47-.47.69-.71l.8.63a11.63,11.63,0,0,1-.86.86,10.68,10.68,0,0,1-1,.81,4.49,4.49,0,0,0,.24.42,4,4,0,0,0,.27.34c.14.15.27.22.38.19a.3.3,0,0,0,.2-.25,5.19,5.19,0,0,0,.09-.64c0-.24,0-.48.07-.72Zm-1.58-5.32a8.57,8.57,0,0,0-1.27-1l.71-.69a5.94,5.94,0,0,1,1.32,1Z"/><path class="cls-4" d="M71.88,22.72h-3.4V21.61h8v1.11H73v5.72H77v1.11H67.93V28.44h3.95Z"/><path class="cls-4" d="M79.43,25a3.55,3.55,0,0,1-.38.52,7.85,7.85,0,0,1-.58.6L78,25a14.24,14.24,0,0,0,2.51-4.15l1.13.36a12.79,12.79,0,0,1-1,2.16V30.2H79.43Zm3.51-1.68c-.14.33-.3.67-.47,1s-.38.7-.61,1.07l-1-.8a10.64,10.64,0,0,0,1.64-3.75l1.12.28c0,.21-.11.41-.17.59a5.24,5.24,0,0,1-.18.52h3.94v1.08h-3v1.28H87v1.08H84.3v1.27H87V28H84.3v2.2H83.18V23.28Z"/><path class="cls-4" d="M89.21,24.28h-1V23.2h1V21h1.08V23.2h1v1.08h-1v3l1.24-.4L91.61,28l-3.19,1.07-.29-1.15,1.08-.32Zm1.48,5.11a4.73,4.73,0,0,0,2.11-4.07V23.48H91.44V22.41h2.71a2.55,2.55,0,0,0-.44-.42c-.18-.15-.36-.29-.55-.42l.84-.69c.26.19.49.38.7.56a7.86,7.86,0,0,1,.58.57l-.51.4h2.7v1.07H93.89V24.6h3c0,.84,0,1.62,0,2.35s-.07,1.34-.11,1.83a1.51,1.51,0,0,1-.44,1,1.65,1.65,0,0,1-1.12.33h-.58l-.64,0L93.6,29l.85.06.67,0a.69.69,0,0,0,.36-.08.53.53,0,0,0,.14-.36c0-.2,0-.42.07-.66s0-.5,0-.77l0-.78c0-.26,0-.5,0-.72H93.89a6,6,0,0,1-.61,2.39,7.13,7.13,0,0,1-1.71,2.16Z"/><path class="cls-4" d="M48.35,35.53A1.78,1.78,0,0,1,47,35l.48-.47a1.22,1.22,0,0,0,.9.31c.43,0,.67-.16.67-.46a.44.44,0,0,0-.12-.32.64.64,0,0,0-.33-.13l-.46-.06a1.3,1.3,0,0,1-.72-.31,1,1,0,0,1-.27-.74c0-.67.49-1.13,1.31-1.13a1.62,1.62,0,0,1,1.21.43l-.47.46a1,1,0,0,0-.77-.26c-.38,0-.57.22-.57.48a.34.34,0,0,0,.11.26.6.6,0,0,0,.34.15l.45.06a1.3,1.3,0,0,1,.71.29,1.07,1.07,0,0,1,.29.8C49.74,35.12,49.14,35.53,48.35,35.53Z"/><path class="cls-4" d="M51.87,32.4v3.09h-.74V32.4h-1v-.65h2.68v.65Z"/><path class="cls-4" d="M55.61,35.12a1.46,1.46,0,0,1-2,0c-.38-.38-.37-.85-.37-1.5s0-1.12.37-1.49a1.46,1.46,0,0,1,2,0c.38.37.37.84.37,1.49S56,34.74,55.61,35.12Zm-.55-2.55a.59.59,0,0,0-.46-.2.65.65,0,0,0-.48.2c-.14.16-.18.33-.18,1s0,.89.18,1.05a.65.65,0,0,0,.48.2.59.59,0,0,0,.46-.2c.15-.16.19-.33.19-1.05S55.21,32.73,55.06,32.57Z"/><path class="cls-4" d="M59,35.12a1.37,1.37,0,0,1-1,.41,1.39,1.39,0,0,1-1-.41c-.38-.38-.37-.85-.37-1.5s0-1.12.37-1.49a1.36,1.36,0,0,1,1-.41,1.33,1.33,0,0,1,1,.41c.38.37.37.84.37,1.49S59.38,34.74,59,35.12Zm-.54-2.55a.62.62,0,0,0-.47-.2.61.61,0,0,0-.47.2c-.15.16-.18.33-.18,1s0,.89.18,1.05a.61.61,0,0,0,.47.2.62.62,0,0,0,.47-.2c.14-.16.18-.33.18-1.05S58.6,32.73,58.46,32.57Z"/><path class="cls-4" d="M60.12,35.49V31.75h.74v3.09h1.7v.65Z"/><path class="cls-4" d="M66.72,35.14a1.4,1.4,0,0,1-1,.35H64.38V31.75h1.35a1.4,1.4,0,0,1,1,.35,1.9,1.9,0,0,1,.38,1.5A2,2,0,0,1,66.72,35.14Zm-.51-2.51a.67.67,0,0,0-.55-.23h-.55v2.44h.55a.67.67,0,0,0,.55-.23c.14-.17.16-.44.16-1S66.35,32.8,66.21,32.63Z"/><path class="cls-4" d="M67.85,35.49V31.75h2.47v.65H68.58v.88h1.48v.65H68.58v.91h1.74v.65Z"/><path class="cls-4" d="M72.07,35.53A1.78,1.78,0,0,1,70.7,35l.48-.47a1.22,1.22,0,0,0,.9.31c.43,0,.66-.16.66-.46a.43.43,0,0,0-.11-.32A.68.68,0,0,0,72.3,34l-.46-.06a1.3,1.3,0,0,1-.72-.31,1,1,0,0,1-.27-.74,1.14,1.14,0,0,1,1.3-1.13,1.59,1.59,0,0,1,1.21.43l-.46.46a1,1,0,0,0-.77-.26c-.39,0-.58.22-.58.48a.38.38,0,0,0,.11.26.67.67,0,0,0,.35.15l.44.06a1.31,1.31,0,0,1,.72.29,1.07,1.07,0,0,1,.29.8C73.46,35.12,72.85,35.53,72.07,35.53Z"/><path class="cls-4" d="M74.15,35.49V31.75h.73v3.74Z"/><path class="cls-4" d="M78.07,35.1a1.43,1.43,0,0,1-1.06.43,1.4,1.4,0,0,1-1-.41,1.13,1.13,0,0,1-.3-.57,6.21,6.21,0,0,1,0-1.86,1,1,0,0,1,.3-.56,1.36,1.36,0,0,1,1-.41,1.33,1.33,0,0,1,1.41,1.2h-.73a.64.64,0,0,0-.68-.55.62.62,0,0,0-.47.2c-.13.17-.18.31-.18,1s0,.88.18,1.06a.6.6,0,0,0,.47.19.67.67,0,0,0,.52-.21.72.72,0,0,0,.17-.5V34H77v-.61h1.42V34A1.49,1.49,0,0,1,78.07,35.1Z"/><path class="cls-4" d="M81.33,35.49l-1.48-2.3v2.3h-.73V31.75h.65L81.25,34V31.75H82v3.74Z"/><path class="cls-4" d="M49.45,40.76l-.22-.66H47.9l-.23.66h-.76L48.27,37h.58l1.36,3.74Zm-.87-2.64-.48,1.36H49Z"/><path class="cls-4" d="M52.9,40.76l-1.49-2.3v2.3h-.73V37h.65l1.49,2.29V37h.73v3.74Z"/><path class="cls-4" d="M56.77,40.41a1.4,1.4,0,0,1-1,.35H54.43V37h1.35a1.4,1.4,0,0,1,1,.35,1.9,1.9,0,0,1,.38,1.5A2,2,0,0,1,56.77,40.41Zm-.51-2.51a.66.66,0,0,0-.55-.23h-.55v2.44h.55a.66.66,0,0,0,.55-.23c.14-.17.16-.44.16-1S56.4,38.07,56.26,37.9Z"/><path class="cls-4" d="M61.79,40.76V38.58L61.07,40h-.49l-.72-1.42v2.18h-.74V37h.73l1,2,1-2h.72v3.74Z"/><path class="cls-4" d="M65.53,40.76l-.22-.66H64l-.23.66H63L64.35,37h.57l1.37,3.74Zm-.87-2.64-.48,1.36h.93Z"/><path class="cls-4" d="M68.94,40.76l-1-1.7-.49.58v1.12h-.73V37h.73v1.63L68.81,37h.89L68.46,38.5l1.33,2.26Z"/><path class="cls-4" d="M70.26,40.76V37H71v3.74Z"/><path class="cls-4" d="M74.09,40.76l-1.49-2.3v2.3h-.73V37h.65L74,39.31V37h.73v3.74Z"/><path class="cls-4" d="M77.93,40.37a1.43,1.43,0,0,1-1.06.43,1.35,1.35,0,0,1-1-.42,1.06,1.06,0,0,1-.3-.56,6.21,6.21,0,0,1,0-1.86,1.09,1.09,0,0,1,.3-.57,1.38,1.38,0,0,1,1-.41,1.35,1.35,0,0,1,1.41,1.2h-.74a.63.63,0,0,0-.67-.54.62.62,0,0,0-.47.2c-.13.17-.18.31-.18,1s0,.88.18,1.06a.58.58,0,0,0,.47.19.67.67,0,0,0,.52-.21.72.72,0,0,0,.17-.5v-.14h-.69v-.61h1.42v.55A1.51,1.51,0,0,1,77.93,40.37Z"/><path class="cls-4" d="M83.39,40.76h-.61l-.69-2.27-.69,2.27h-.61l-1-3.74h.77l.57,2.36L81.82,37h.55l.68,2.36L83.64,37h.76Z"/><path class="cls-4" d="M87.09,40.38a1.44,1.44,0,0,1-2,0c-.38-.37-.37-.84-.37-1.49s0-1.12.37-1.5a1.46,1.46,0,0,1,2,0c.38.38.37.85.37,1.5S87.47,40,87.09,40.38Zm-.54-2.54a.62.62,0,0,0-.47-.2.65.65,0,0,0-.48.2c-.14.16-.18.33-.18,1s0,.89.18,1a.65.65,0,0,0,.48.2.62.62,0,0,0,.47-.2c.14-.16.18-.33.18-1S86.69,38,86.55,37.84Z"/><path class="cls-4" d="M90.2,40.76l-.73-1.49h-.53v1.49h-.73V37h1.47a1.14,1.14,0,0,1,1.22,1.14,1,1,0,0,1-.69,1l.84,1.61Zm-.57-3.09h-.69v1h.69a.49.49,0,0,0,.53-.5A.48.48,0,0,0,89.63,37.67Z"/><path class="cls-4" d="M93.84,40.76l-1-1.7-.48.58v1.12h-.73V37h.73v1.63L93.71,37h.89L93.36,38.5l1.33,2.26Z"/><path class="cls-4" d="M96.19,40.8a1.79,1.79,0,0,1-1.37-.5l.48-.47a1.25,1.25,0,0,0,.9.31c.44,0,.67-.16.67-.46a.44.44,0,0,0-.12-.32.64.64,0,0,0-.33-.13L96,39.17a1.33,1.33,0,0,1-.73-.31,1,1,0,0,1-.27-.74A1.16,1.16,0,0,1,96.28,37a1.62,1.62,0,0,1,1.21.44l-.46.46a1,1,0,0,0-.77-.26c-.39,0-.58.22-.58.47a.35.35,0,0,0,.11.27.6.6,0,0,0,.35.15l.44.06a1.27,1.27,0,0,1,.71.29,1.07,1.07,0,0,1,.29.8C97.58,40.38,97,40.8,96.19,40.8Z"/><path class="cls-4" d="M100.28,40.76V39.2H99v1.56h-.73V37H99v1.53h1.27V37H101v3.74Z"/><path class="cls-4" d="M104.16,40.38a1.36,1.36,0,0,1-1,.42,1.34,1.34,0,0,1-1-.42c-.38-.37-.37-.84-.37-1.49s0-1.12.37-1.5a1.37,1.37,0,0,1,1-.41,1.39,1.39,0,0,1,1,.41,1.94,1.94,0,0,1,.37,1.5C104.53,39.54,104.53,40,104.16,40.38Zm-.55-2.54a.61.61,0,0,0-.47-.2.62.62,0,0,0-.47.2c-.14.16-.18.33-.18,1s0,.89.18,1a.62.62,0,0,0,.47.2.61.61,0,0,0,.47-.2c.14-.16.19-.33.19-1S103.75,38,103.61,37.84Z"/><path class="cls-4" d="M106.73,39.35H106v1.41h-.73V37h1.45a1.17,1.17,0,1,1,0,2.33Zm0-1.68H106v1h.69a.49.49,0,0,0,.54-.51A.5.5,0,0,0,106.7,37.67Z"/></g></g></svg>